REM MD5 f50622c42b3a579a16d140e587456c1c
FILE "Tekken 3 (Europe, Australia).bin" BINARY
  TRACK 01 MODE2/2352
    INDEX 01 00:00:00
  TRACK 02 AUDIO
    INDEX 00 59:45:58
    INDEX 01 59:47:58
  TRACK 03 AUDIO
    INDEX 00 62:22:61
    INDEX 01 62:24:61
REM LEADOUT 65:01:59
